<svg data-v-423bf9ae="" xmlns="http://www.w3.org/2000/svg" viewBox="0 0 479.3779850074483 189" class="iconAboveSlogan"><!----><!----><!----><g data-v-423bf9ae="" id="1dec826e-c0c0-41d5-88e4-ad867ca306c8" fill="black" transform="matrix(5.655042595806296,0,0,5.655042595806296,-2.770965922504587,102.7737968906238)"><path d="M6.57 0.70C6.57 0.70 6.58 0.04 5.81 0.04C5.35 0.04 4.73 0.14 4.41 0.20L4.41 0.70L5.25 0.70L5.25 3.81L5.57 5.28C5.26 4.45 4.48 3.81 3.42 3.81C1.50 3.81 0.49 5.46 0.49 7.53C0.49 9.62 1.53 10.65 3.56 10.65C4.24 10.65 4.96 10.28 5.28 9.60C5.47 10.39 6.08 10.65 6.57 10.65C6.83 10.65 7.11 10.61 7.34 10.50L7.34 10.00C6.90 10.00 6.57 9.79 6.57 9.35ZM3.75 10.12C2.58 10.12 1.95 9.24 1.95 7.56C1.95 5.88 2.41 4.47 3.61 4.47C4.24 4.47 5.25 5.11 5.25 6.92L5.25 7.77C5.25 9.37 4.45 10.12 3.75 10.12ZM10.63 10.65C11.31 10.65 12.03 10.28 12.35 9.60C12.54 10.39 13.09 10.65 13.58 10.65C13.85 10.65 14.13 10.61 14.35 10.50L14.35 10.00C13.92 10.00 13.58 9.79 13.58 9.35L13.58 3.96L13.09 3.81L12.26 4.03C11.91 3.85 11.47 3.81 11.05 3.81C9.28 3.81 7.84 4.90 7.84 7.57C7.84 9.83 9.25 10.65 10.63 10.65ZM12.26 7.77C12.26 9.37 11.47 10.00 10.77 10.00C10.00 10.00 9.20 9.45 9.20 7.50C9.20 5.08 10.22 4.33 11.12 4.33C11.54 4.33 11.82 4.40 12.26 4.65ZM16.91 2.34L16.27 2.18L15.68 3.65L14.69 3.96L14.78 4.47L15.60 4.47L15.60 8.85C15.60 9.87 16.16 10.65 17.44 10.65C18.24 10.65 18.65 10.33 19.11 9.84L18.79 9.46C18.49 9.79 18.19 10.00 17.68 10.00C17.26 10.00 16.91 9.62 16.91 8.96L16.91 4.47L18.65 4.47L18.75 3.96L16.91 3.96ZM25.68 5.78C25.68 4.34 24.58 3.81 22.96 3.81C21 3.81 19.60 5.07 19.60 7.22C19.60 9.30 20.76 10.65 23.24 10.65C24.15 10.65 25.05 10.37 25.65 9.83L25.33 9.37C24.75 9.73 24.07 10.00 23.32 10.00C22.05 10.00 21.34 9.14 21.14 7.87C23.51 7.87 25.68 7.49 25.68 5.78ZM21.08 7.11C21.08 5.52 21.70 4.33 22.90 4.33C23.87 4.33 24.36 4.73 24.36 5.61C24.36 6.65 22.92 7.36 21.08 7.38ZM31.46 5.64C31.85 5.64 32.17 5.32 32.17 4.94C32.17 4.16 31.16 3.81 30.13 3.81C27.94 3.81 26.53 5.07 26.53 7.24C26.53 9.31 27.62 10.65 30.10 10.65C31.01 10.65 31.75 10.37 32.35 9.83L32.03 9.37C31.46 9.73 30.91 10.00 30.18 10.00C28.43 10.00 28 8.64 28 6.96C28 5.31 28.77 4.33 30.17 4.33C30.56 4.33 30.77 4.40 31.02 4.49ZM35.88 10.65C36.57 10.65 37.28 10.28 37.60 9.60C37.80 10.39 38.35 10.65 38.84 10.65C39.10 10.65 39.38 10.61 39.61 10.50L39.61 10.00C39.17 10.00 38.84 9.79 38.84 9.35L38.84 3.96L38.35 3.81L37.52 4.03C37.17 3.85 36.72 3.81 36.30 3.81C34.54 3.81 33.10 4.90 33.10 7.57C33.10 9.83 34.51 10.65 35.88 10.65ZM37.52 7.77C37.52 9.37 36.72 10.00 36.02 10.00C35.25 10.00 34.45 9.45 34.45 7.50C34.45 5.08 35.48 4.33 36.37 4.33C36.79 4.33 37.07 4.40 37.52 4.65ZM44.35 3.81C43.61 3.81 42.74 4.38 42.45 5.43L42.45 4.47C42.45 4.47 42.46 3.81 41.69 3.81C41.23 3.81 40.61 3.91 40.29 3.96L40.29 4.47L41.13 4.47L41.13 10.50L42.45 10.50L42.45 7.39C42.45 5.42 43.32 4.47 44.02 4.47C44.67 4.47 45.18 5.05 45.18 5.89L45.18 10.50L46.49 10.50L46.49 7C46.49 5.25 47.35 4.47 48.03 4.47C48.82 4.47 49.21 5.18 49.21 6.20L49.21 9.38C49.21 10.36 49.90 10.65 50.41 10.65C50.79 10.65 51.16 10.60 51.35 10.50L51.35 10.00C50.92 10.00 50.53 9.79 50.53 9.35L50.53 6.31C50.53 4.83 49.92 3.81 48.34 3.81C47.56 3.81 46.66 4.38 46.35 5.40C46.16 4.37 45.53 3.81 44.35 3.81ZM54.03 7.10C54.03 5.12 55.06 4.33 55.76 4.33C56.76 4.33 57.37 5.17 57.37 6.93C57.37 8.61 56.83 10.00 55.50 10.00C54.95 10.00 54.38 9.88 54.03 9.70ZM52.71 10.00C53.52 10.47 54.42 10.65 55.59 10.65C57.58 10.65 58.76 9.14 58.76 6.90C58.76 4.96 57.64 3.81 55.96 3.81C54.94 3.81 54.07 4.55 53.75 5.54L54.03 4.20L54.03 0.70C54.03 0.70 54.04 0.04 53.27 0.04C52.81 0.04 52.19 0.14 51.87 0.20L51.87 0.70L52.71 0.70ZM63.17 3.81C61.10 3.81 59.88 5.12 59.88 7.22C59.88 9.32 60.96 10.65 63.17 10.65C65.39 10.65 66.46 9.38 66.46 7.22C66.46 5.07 65.24 3.81 63.17 3.81ZM63.17 4.33C64.34 4.33 65.10 5.39 65.10 7.18C65.10 8.96 64.36 10.14 63.17 10.14C61.98 10.14 61.24 8.95 61.24 7.18C61.24 5.42 62.01 4.33 63.17 4.33ZM73.58 0.70C73.58 0.70 73.60 0.04 72.83 0.04C72.37 0.04 71.75 0.14 71.43 0.20L71.43 0.70L72.27 0.70L72.27 3.81L72.59 5.28C72.28 4.45 71.50 3.81 70.43 3.81C68.52 3.81 67.51 5.46 67.51 7.53C67.51 9.62 68.54 10.65 70.57 10.65C71.26 10.65 71.97 10.28 72.30 9.60C72.49 10.39 73.09 10.65 73.58 10.65C73.85 10.65 74.13 10.61 74.35 10.50L74.35 10.00C73.92 10.00 73.58 9.79 73.58 9.35ZM70.77 10.12C69.59 10.12 68.96 9.24 68.96 7.56C68.96 5.88 69.43 4.47 70.63 4.47C71.26 4.47 72.27 5.11 72.27 6.92L72.27 7.77C72.27 9.37 71.47 10.12 70.77 10.12ZM76.44 0.74C76.02 0.74 75.68 1.08 75.68 1.50C75.68 1.92 76.02 2.25 76.44 2.25C76.85 2.25 77.20 1.92 77.20 1.50C77.20 1.08 76.85 0.74 76.44 0.74ZM77.14 4.47C77.14 4.47 77.15 3.81 76.38 3.81C75.92 3.81 75.31 3.91 74.98 3.96L74.98 4.47L75.82 4.47L75.82 10.50L77.14 10.50ZM81.54 10.65C82.22 10.65 82.94 10.28 83.26 9.60C83.45 10.39 84 10.65 84.49 10.65C84.76 10.65 85.04 10.61 85.26 10.50L85.26 10.00C84.83 10.00 84.49 9.79 84.49 9.35L84.49 3.96L84 3.81L83.17 4.03C82.82 3.85 82.38 3.81 81.96 3.81C80.19 3.81 78.75 4.90 78.75 7.57C78.75 9.83 80.16 10.65 81.54 10.65ZM83.17 7.77C83.17 9.37 82.38 10.00 81.68 10.00C80.91 10.00 80.11 9.45 80.11 7.50C80.11 5.08 81.13 4.33 82.03 4.33C82.45 4.33 82.73 4.40 83.17 4.65Z"></path></g><!----><g data-v-423bf9ae="" id="58ef832f-81d2-4c38-a23a-07ddf8e37a09" transform="matrix(1.00164709730305,0,0,1.00164709730305,194.4407274742813,-0.000009882583903220166)" stroke="none" fill="black"><switch><g><path d="M88.049 45.984c-.709-12.29-11.282-21.363-23.593-21.51-5.518-.066-10.808 1.248-14.571 5.524-.438.477-.803.991-1.056 1.556-1.339 3.013-.967 3.877-.967 3.877a.17.17 0 00.019-.019c.015.124 4.375-4.442 9.23-5.817 2.003-.567 4.052-1.028 6.095-1.067 10.693-.208 18.653 7.974 18.905 18.285a18.056 18.056 0 01-2.151 8.992c-6.623 13.181-26.531 25.048-26.531 25.048l-.027-.033-.031.032s-31.627-17.198-39.999-36.66c-1.573-3.661-2.578-5.919-2.741-11.446-.481-16.536 12-29.824 28.081-26.245C46.188 8.166 49.32 15.28 49.32 15.28s1.003-4.414-1.134-8.348C46.726 4.244 42.708.006 33.096.006c-17.639 0-29.978 14.3-29.978 31.939a31.798 31.798 0 003.904 15.306c11.437 22.326 46.013 42.607 46.013 42.607s25.834-15.804 32.908-31.816c1.55-3.265 2.328-8.194 2.106-12.058z"></path></g></switch></g><!----><g data-v-423bf9ae="" id="c8aa4edc-705c-4e30-9446-0887688c400d" fill="black" transform="matrix(1.1800750743750668,0,0,1.1800750743750668,59.94873701843292,197.8820531927537)"><path d="M7.28 9.34L7.28 9.34Q7.73 9.34 7.99 9.59Q8.25 9.84 8.25 10.29L8.25 10.29Q8.25 10.40 8.23 10.52Q8.22 10.64 8.18 10.72L8.18 10.72Q7.99 10.70 7.77 10.68Q7.55 10.65 7.24 10.65L7.24 10.65Q6.61 10.65 5.98 10.77Q5.35 10.88 4.77 10.95L4.77 10.95Q4.14 12.43 3.74 13.73Q3.33 15.04 3.11 16.31L3.11 16.31Q2.63 16.20 2.27 15.90Q1.90 15.61 1.58 15.08L1.58 15.08Q1.68 14.85 1.82 14.54Q1.96 14.22 2.16 13.74Q2.35 13.26 2.63 12.56Q2.90 11.87 3.28 10.91L3.28 10.91Q2.69 10.71 2.51 10.22L2.51 10.22Q2.58 10.15 2.90 10.06Q3.22 9.97 3.68 9.86L3.68 9.86Q3.89 9.31 4.05 8.88Q4.20 8.46 4.33 8.07Q4.45 7.69 4.56 7.32Q4.66 6.94 4.75 6.52L4.75 6.52L4.68 6.52Q4.14 6.52 3.81 6.27Q3.49 6.02 3.49 5.61L3.49 5.61Q3.49 5.50 3.52 5.35Q3.56 5.19 3.61 5.08L3.61 5.08Q3.88 5.12 4.14 5.14Q4.40 5.15 4.82 5.15L4.82 5.15Q5.70 5.15 6.47 5.10Q7.24 5.05 7.86 5.00Q8.48 4.94 8.93 4.89Q9.38 4.84 9.62 4.84L9.62 4.84Q9.94 4.84 10.19 5.18Q10.44 5.52 10.58 6.13L10.58 6.13Q10.14 6.09 9.86 6.08Q9.59 6.06 9.38 6.06L9.38 6.06Q8.67 6.06 8.07 6.13Q7.48 6.19 6.94 6.27L6.94 6.27Q6.86 6.40 6.75 6.59Q6.65 6.79 6.48 7.15Q6.31 7.50 6.05 8.08Q5.80 8.65 5.40 9.53L5.40 9.53Q5.95 9.45 6.45 9.39Q6.94 9.34 7.28 9.34ZM16.55 14.38L16.55 14.38Q16.55 13.87 16.71 13.07Q16.87 12.26 17.13 11.33Q17.39 10.40 17.72 9.43Q18.06 8.46 18.41 7.60Q18.76 6.75 19.10 6.10Q19.43 5.46 19.70 5.18L19.70 5.18Q19.84 5.19 20.07 5.29Q20.30 5.38 20.54 5.50Q20.78 5.63 20.97 5.78Q21.17 5.92 21.22 6.05L21.22 6.05Q20.82 6.41 20.42 7.15Q20.02 7.88 19.65 8.82Q19.28 9.76 18.96 10.80Q18.63 11.84 18.40 12.82Q18.16 13.80 18.02 14.64Q17.89 15.48 17.89 16.00L17.89 16.00Q17.89 16.24 17.93 16.30L17.93 16.30Q17.63 16.28 17.49 16.19Q17.35 16.10 17.27 16.00Q17.19 15.89 17.13 15.79Q17.07 15.68 16.94 15.62L16.94 15.62Q16.84 15.58 16.77 15.43Q16.70 15.27 16.65 15.09Q16.60 14.90 16.58 14.70Q16.55 14.50 16.55 14.38ZM28.78 16.24L28.78 16.24Q27.99 16.00 27.71 15.79Q27.43 15.57 27.43 15.19L27.43 15.19Q27.43 14.77 27.62 14.01Q27.82 13.24 28.13 12.31Q28.45 11.37 28.85 10.35Q29.26 9.32 29.68 8.39Q30.10 7.45 30.50 6.67Q30.90 5.89 31.21 5.46L31.21 5.46L31.11 4.87Q31.30 4.87 31.65 4.97Q32.00 5.07 32.36 5.21Q32.72 5.35 32.99 5.49Q33.26 5.64 33.29 5.74L33.29 5.74Q33.22 6.08 33.18 6.76Q33.14 7.43 33.14 8.20L33.14 8.20Q33.14 9.73 33.26 11.19Q33.38 12.66 33.81 14.17L33.81 14.17Q34.03 13.05 34.29 11.94Q34.55 10.82 34.83 9.81Q35.11 8.79 35.39 7.92Q35.67 7.06 35.93 6.40Q36.19 5.75 36.41 5.38Q36.64 5.01 36.82 4.98L36.82 4.98Q36.97 5.01 37.16 5.10Q37.34 5.19 37.51 5.32Q37.67 5.45 37.81 5.60Q37.95 5.75 38.04 5.91L38.04 5.91Q37.59 6.09 37.15 6.76Q36.71 7.43 36.31 8.39Q35.91 9.35 35.57 10.47Q35.22 11.59 34.97 12.68Q34.71 13.76 34.56 14.69Q34.41 15.61 34.40 16.17L34.40 16.17Q34.40 16.20 34.41 16.21L34.41 16.21Q34.37 16.23 34.32 16.23Q34.27 16.23 34.23 16.23L34.23 16.23Q33.59 16.23 33.09 16.07Q32.59 15.90 32.44 15.61L32.44 15.61Q32.14 14.43 31.95 13.34Q31.75 12.25 31.62 11.16Q31.49 10.07 31.41 8.95Q31.33 7.84 31.29 6.62L31.29 6.62Q31.02 7.04 30.73 7.72Q30.44 8.40 30.16 9.21Q29.88 10.02 29.62 10.92Q29.36 11.82 29.16 12.67Q28.97 13.52 28.85 14.29Q28.74 15.05 28.74 15.61L28.74 15.61Q28.74 15.90 28.75 16.03Q28.76 16.16 28.78 16.24ZM45.04 14.45L45.04 14.45Q45.25 13.99 45.54 13.26Q45.84 12.53 46.16 11.68Q46.48 10.84 46.82 9.95Q47.15 9.06 47.45 8.26Q47.74 7.46 47.96 6.83Q48.17 6.20 48.27 5.87L48.27 5.87Q47.39 6.23 46.76 6.97Q46.13 7.71 45.81 8.83L45.81 8.83Q45.49 8.72 45.22 8.43Q44.95 8.15 44.87 7.71L44.87 7.71Q45.01 7.07 45.40 6.54Q45.78 6.01 46.37 5.63Q46.96 5.25 47.73 5.05Q48.50 4.84 49.38 4.84L49.38 4.84Q50.50 4.84 51.44 5.17Q52.37 5.50 53.05 6.09Q53.72 6.68 54.10 7.50Q54.47 8.33 54.47 9.34L54.47 9.34Q54.47 10.71 53.97 11.96Q53.47 13.20 52.61 14.15Q51.74 15.11 50.61 15.67Q49.48 16.24 48.23 16.24L48.23 16.24Q47.08 16.24 46.26 15.79Q45.44 15.33 45.04 14.45ZM49.98 5.54L49.98 5.54Q49.28 5.54 48.65 5.74L48.65 5.74Q49.27 5.96 49.67 6.21Q50.08 6.45 50.23 6.59L50.23 6.59Q50.12 6.75 49.90 7.14Q49.69 7.53 49.40 8.09Q49.11 8.65 48.79 9.32Q48.47 9.98 48.16 10.68L48.16 10.68Q47.36 12.46 47.01 13.48Q46.65 14.50 46.65 14.90L46.65 14.90Q46.84 14.97 47.12 14.99Q47.40 15.02 47.73 15.02L47.73 15.02Q48.86 15.02 49.88 14.50Q50.89 13.97 51.65 13.09Q52.42 12.21 52.86 11.04Q53.30 9.87 53.30 8.58L53.30 8.58Q53.30 7.14 52.40 6.34Q51.51 5.54 49.98 5.54ZM77.53 14.38L77.53 14.38Q77.88 14.98 77.88 15.54L77.88 15.54Q77.88 15.67 77.86 15.77Q77.84 15.88 77.81 15.99L77.81 15.99Q77.57 15.96 77.31 15.95Q77.06 15.93 76.78 15.93L76.78 15.93Q76.44 15.93 76.10 15.95Q75.75 15.97 75.33 16.02Q74.91 16.06 74.40 16.13Q73.88 16.20 73.19 16.31L73.19 16.31Q72.87 16.20 72.55 15.87Q72.23 15.54 71.95 15.08L71.95 15.08Q72.09 14.77 72.30 14.31Q72.51 13.86 72.79 13.21Q73.07 12.56 73.41 11.68Q73.75 10.81 74.14 9.66L74.14 9.66Q74.40 8.90 74.58 8.33Q74.76 7.76 74.91 7.22Q75.05 6.68 75.19 6.09Q75.33 5.50 75.50 4.73L75.50 4.73Q76.06 4.84 76.47 5.14Q76.89 5.45 77.27 6.01L77.27 6.01Q77.15 6.19 76.97 6.59Q76.79 7 76.55 7.58Q76.30 8.16 76.01 8.90Q75.71 9.63 75.39 10.47L75.39 10.47Q75.08 11.30 74.79 12.03Q74.49 12.75 74.26 13.34Q74.03 13.93 73.89 14.35Q73.75 14.77 73.75 14.98L73.75 14.98Q73.98 14.97 74.16 14.95Q74.34 14.94 74.54 14.90Q74.73 14.87 74.96 14.82Q75.19 14.77 75.52 14.69L75.52 14.69Q75.80 14.62 76.03 14.57Q76.27 14.52 76.50 14.48Q76.73 14.45 76.98 14.43Q77.22 14.41 77.53 14.38ZM92.33 4.98L92.33 4.98Q92.60 5.10 92.88 5.27Q93.16 5.45 93.39 5.63Q93.63 5.81 93.79 5.98Q93.95 6.16 93.97 6.27L93.97 6.27Q93.73 6.22 93.49 6.20Q93.25 6.17 93.06 6.17L93.06 6.17Q92.43 6.17 91.81 6.48Q91.18 6.79 90.62 7.32Q90.06 7.85 89.59 8.57Q89.11 9.28 88.77 10.09Q88.42 10.91 88.23 11.77Q88.03 12.64 88.03 13.48L88.03 13.48Q88.03 14.57 88.40 15.11Q88.76 15.64 89.46 15.64L89.46 15.64Q89.80 15.64 90.19 15.51Q90.58 15.37 90.99 15.13Q91.39 14.90 91.78 14.56Q92.18 14.22 92.51 13.82L92.51 13.82Q93.00 13.23 93.39 12.48Q93.79 11.73 94.06 10.89Q94.33 10.05 94.48 9.16Q94.63 8.27 94.63 7.42L94.63 7.42Q94.63 7.08 94.61 6.85Q94.60 6.62 94.58 6.46Q94.56 6.30 94.54 6.20Q94.53 6.10 94.51 6.03L94.51 6.03Q94.68 6.12 94.89 6.24Q95.09 6.36 95.26 6.59Q95.44 6.82 95.56 7.20Q95.68 7.57 95.68 8.18L95.68 8.18Q95.68 9.16 95.45 10.10Q95.21 11.05 94.80 11.90Q94.39 12.75 93.83 13.50Q93.27 14.24 92.62 14.80L92.62 14.80Q91.78 15.54 90.83 15.95Q89.88 16.35 89.00 16.35L89.00 16.35Q87.71 16.35 87.03 15.53Q86.35 14.71 86.35 13.12L86.35 13.12Q86.35 12.26 86.54 11.31Q86.73 10.36 87.07 9.44Q87.42 8.51 87.89 7.68Q88.37 6.85 88.94 6.21Q89.50 5.57 90.15 5.19Q90.80 4.82 91.49 4.82L91.49 4.82Q91.71 4.82 91.91 4.85Q92.11 4.89 92.33 4.98ZM107.24 16.07L107.24 16.07Q106.92 16.24 106.55 16.24L106.55 16.24Q106.11 16.18 105.69 16.02Q105.28 15.85 105.08 15.61L105.08 15.61Q104.97 14.92 104.90 14.35Q104.83 13.78 104.79 13.27Q104.75 12.75 104.73 12.29Q104.72 11.82 104.72 11.34L104.72 11.34Q104.72 10.71 104.73 10.01Q104.75 9.31 104.77 8.52Q104.79 7.73 104.80 6.82Q104.82 5.92 104.82 4.86L104.82 4.86Q105.00 4.86 105.36 4.96Q105.73 5.07 106.09 5.21Q106.44 5.35 106.72 5.49Q107.00 5.64 107.03 5.74L107.03 5.74Q106.89 6.13 106.79 6.76Q106.68 7.39 106.62 8.16Q106.55 8.93 106.53 9.79Q106.50 10.64 106.50 11.48L106.50 11.48Q106.50 12.11 106.51 12.61Q106.53 13.10 106.55 13.50Q106.57 13.90 106.61 14.25Q106.65 14.59 106.71 14.92L106.71 14.92Q107.10 13.73 107.57 12.54Q108.04 11.35 108.54 10.25Q109.03 9.16 109.52 8.20Q110.01 7.25 110.45 6.54Q110.89 5.84 111.24 5.43Q111.59 5.01 111.82 4.98L111.82 4.98Q111.97 5.01 112.15 5.10Q112.32 5.19 112.48 5.32Q112.63 5.45 112.76 5.60Q112.88 5.75 112.95 5.91L112.95 5.91Q112.43 6.09 111.84 6.76Q111.24 7.43 110.64 8.38Q110.04 9.32 109.47 10.44Q108.91 11.55 108.45 12.61Q108.00 13.68 107.67 14.60Q107.35 15.53 107.24 16.07ZM124.21 9.21L124.21 9.21Q124.67 9.21 124.93 9.46Q125.19 9.72 125.19 10.16L125.19 10.16Q125.19 10.28 125.17 10.39Q125.15 10.51 125.12 10.60L125.12 10.60Q124.94 10.57 124.71 10.55Q124.49 10.53 124.18 10.53L124.18 10.53Q123.58 10.53 122.96 10.63Q122.35 10.74 121.79 10.81L121.79 10.81Q121.46 11.55 121.20 12.24Q120.93 12.94 120.74 13.51Q120.55 14.08 120.45 14.50Q120.34 14.92 120.33 15.13L120.33 15.13Q121.46 14.90 122.62 14.73Q123.77 14.56 125.05 14.48L125.05 14.48Q125.20 14.71 125.31 14.99Q125.41 15.27 125.41 15.60L125.41 15.60Q125.41 15.68 125.41 15.78Q125.41 15.88 125.38 15.97L125.38 15.97Q124.99 15.96 124.56 15.95Q124.12 15.95 123.42 15.95L123.42 15.95Q122.96 15.95 122.55 15.97Q122.14 15.99 121.72 16.03Q121.30 16.07 120.83 16.14Q120.36 16.21 119.77 16.31L119.77 16.31Q119.13 16.06 118.52 15.08L118.52 15.08Q118.76 14.57 119.19 13.54Q119.62 12.52 120.27 10.79L120.27 10.79Q119.64 10.60 119.45 10.09L119.45 10.09Q119.52 10.02 119.85 9.92Q120.19 9.81 120.68 9.70L120.68 9.70Q120.89 9.16 121.04 8.75Q121.18 8.34 121.30 7.99Q121.41 7.63 121.50 7.29Q121.59 6.94 121.67 6.54L121.67 6.54Q121.18 6.51 120.90 6.27Q120.62 6.02 120.62 5.63L120.62 5.63Q120.62 5.52 120.66 5.36Q120.69 5.21 120.74 5.10L120.74 5.10Q121.02 5.14 121.28 5.15Q121.53 5.17 121.95 5.17L121.95 5.17Q122.84 5.17 123.61 5.12Q124.38 5.07 125.00 5.01Q125.62 4.96 126.07 4.91Q126.52 4.86 126.76 4.86L126.76 4.86Q127.08 4.86 127.33 5.19Q127.58 5.53 127.71 6.15L127.71 6.15Q127.27 6.10 127.00 6.09Q126.73 6.08 126.52 6.08L126.52 6.08Q125.75 6.08 125.11 6.15Q124.47 6.23 123.89 6.31L123.89 6.31Q123.80 6.44 123.70 6.64Q123.59 6.83 123.42 7.18Q123.26 7.53 123.01 8.06Q122.77 8.60 122.42 9.39L122.42 9.39Q122.95 9.31 123.42 9.26Q123.89 9.21 124.21 9.21ZM144.70 14.38L144.70 14.38Q144.70 13.87 144.87 13.07Q145.03 12.26 145.28 11.33Q145.54 10.40 145.88 9.43Q146.22 8.46 146.57 7.60Q146.92 6.75 147.25 6.10Q147.59 5.46 147.85 5.18L147.85 5.18Q147.99 5.19 148.22 5.29Q148.46 5.38 148.69 5.50Q148.93 5.63 149.13 5.78Q149.32 5.92 149.38 6.05L149.38 6.05Q148.97 6.41 148.58 7.15Q148.18 7.88 147.81 8.82Q147.43 9.76 147.11 10.80Q146.79 11.84 146.55 12.82Q146.31 13.80 146.18 14.64Q146.05 15.48 146.05 16.00L146.05 16.00Q146.05 16.24 146.09 16.30L146.09 16.30Q145.78 16.28 145.64 16.19Q145.50 16.10 145.43 16.00Q145.35 15.89 145.28 15.79Q145.22 15.68 145.10 15.62L145.10 15.62Q145.00 15.58 144.93 15.43Q144.86 15.27 144.81 15.09Q144.76 14.90 144.73 14.70Q144.70 14.50 144.70 14.38ZM156.94 16.24L156.94 16.24Q156.14 16.00 155.86 15.79Q155.58 15.57 155.58 15.19L155.58 15.19Q155.58 14.77 155.78 14.01Q155.97 13.24 156.29 12.31Q156.60 11.37 157.01 10.35Q157.42 9.32 157.84 8.39Q158.26 7.45 158.66 6.67Q159.05 5.89 159.36 5.46L159.36 5.46L159.26 4.87Q159.46 4.87 159.81 4.97Q160.16 5.07 160.52 5.21Q160.87 5.35 161.15 5.49Q161.42 5.64 161.45 5.74L161.45 5.74Q161.38 6.08 161.34 6.76Q161.29 7.43 161.29 8.20L161.29 8.20Q161.29 9.73 161.41 11.19Q161.53 12.66 161.97 14.17L161.97 14.17Q162.19 13.05 162.45 11.94Q162.71 10.82 162.99 9.81Q163.27 8.79 163.55 7.92Q163.83 7.06 164.09 6.40Q164.35 5.75 164.57 5.38Q164.79 5.01 164.98 4.98L164.98 4.98Q165.13 5.01 165.31 5.10Q165.49 5.19 165.66 5.32Q165.83 5.45 165.97 5.60Q166.11 5.75 166.19 5.91L166.19 5.91Q165.75 6.09 165.31 6.76Q164.86 7.43 164.47 8.39Q164.07 9.35 163.72 10.47Q163.38 11.59 163.12 12.68Q162.86 13.76 162.72 14.69Q162.57 15.61 162.55 16.17L162.55 16.17Q162.55 16.20 162.57 16.21L162.57 16.21Q162.53 16.23 162.48 16.23Q162.43 16.23 162.39 16.23L162.39 16.23Q161.74 16.23 161.25 16.07Q160.75 15.90 160.59 15.61L160.59 15.61Q160.30 14.43 160.10 13.34Q159.91 12.25 159.78 11.16Q159.64 10.07 159.56 8.95Q159.49 7.84 159.45 6.62L159.45 6.62Q159.18 7.04 158.89 7.72Q158.59 8.40 158.31 9.21Q158.03 10.02 157.77 10.92Q157.51 11.82 157.32 12.67Q157.12 13.52 157.01 14.29Q156.90 15.05 156.90 15.61L156.90 15.61Q156.90 15.90 156.91 16.03Q156.91 16.16 156.94 16.24ZM183.16 12.43L183.16 12.43Q183.16 11.45 183.39 10.51Q183.62 9.56 184.04 8.71Q184.46 7.87 185.05 7.16Q185.63 6.45 186.32 5.94Q187.01 5.42 187.80 5.13Q188.58 4.84 189.41 4.84L189.41 4.84Q190.37 4.84 190.91 5.25Q191.45 5.66 191.45 6.38L191.45 6.38Q191.45 6.66 191.37 6.96Q191.30 7.25 191.15 7.54Q191.00 7.83 190.81 8.09Q190.61 8.36 190.37 8.55L190.37 8.55Q190.01 8.50 189.74 8.22Q189.48 7.95 189.41 7.59L189.41 7.59Q189.90 7.18 190.18 6.74Q190.47 6.30 190.47 5.94L190.47 5.94Q190.47 5.32 189.70 5.32L189.70 5.32Q189.38 5.32 189.03 5.45Q188.69 5.59 188.34 5.82Q187.99 6.06 187.66 6.40Q187.33 6.73 187.05 7.14L187.05 7.14Q185.11 9.94 185.11 12.87L185.11 12.87Q185.11 13.90 185.43 14.53Q185.75 15.16 186.28 15.27L186.28 15.27Q186.89 15.13 187.81 14.50Q188.73 13.87 189.83 12.87L189.83 12.87Q189.97 13.01 189.99 13.16L189.99 13.16Q189.59 13.69 189.15 14.18Q188.72 14.67 188.29 15.08Q187.87 15.48 187.45 15.79Q187.04 16.10 186.69 16.27L186.69 16.27Q184.95 16.24 184.06 15.27Q183.16 14.31 183.16 12.43ZM198.60 16.24L198.60 16.24Q197.93 16.04 197.67 15.85Q197.41 15.65 197.41 15.36L197.41 15.36Q197.41 15.13 197.54 14.73Q197.67 14.32 197.91 13.77Q198.16 13.22 198.50 12.54Q198.84 11.87 199.28 11.10L199.28 11.10Q198.91 11.09 198.63 11.08Q198.34 11.07 198.16 11.07L198.16 11.07Q198.24 10.86 198.63 10.71Q199.02 10.56 199.67 10.44L199.67 10.44Q200.21 9.53 200.84 8.71Q201.46 7.88 202.09 7.19Q202.72 6.50 203.35 5.97Q203.98 5.45 204.55 5.14L204.55 5.14Q204.57 5.04 204.57 4.97Q204.58 4.90 204.58 4.87L204.58 4.87Q204.78 4.87 205.11 4.97Q205.44 5.07 205.75 5.21Q206.07 5.35 206.31 5.49Q206.56 5.64 206.58 5.74L206.58 5.74Q206.12 6.55 205.67 8.17Q205.23 9.79 204.93 12.04L204.93 12.04Q204.86 12.60 204.81 13.31Q204.76 14.03 204.76 14.91L204.76 14.91Q204.76 15.22 204.76 15.54Q204.76 15.86 204.79 16.21L204.79 16.21Q204.76 16.23 204.74 16.23Q204.71 16.23 204.62 16.23L204.62 16.23Q204.43 16.23 204.17 16.16Q203.91 16.10 203.66 16.01Q203.42 15.92 203.25 15.81Q203.07 15.69 203.03 15.61L203.03 15.61Q203.01 15.43 203.01 15.25Q203.01 15.08 203.01 14.88L203.01 14.88Q203.01 14.01 203.08 13.12Q203.14 12.22 203.29 11.27L203.29 11.27Q203.10 11.26 202.78 11.23Q202.45 11.21 202.06 11.20Q201.66 11.19 201.20 11.16Q200.75 11.14 200.31 11.13L200.31 11.13Q199.98 11.76 199.68 12.38Q199.39 13.01 199.18 13.64L199.18 13.64Q198.94 14.31 198.79 14.98Q198.65 15.65 198.60 16.24ZM204.01 7.83L204.01 7.83Q204.06 7.63 204.14 7.29Q204.22 6.94 204.29 6.57L204.29 6.57Q203.94 6.69 203.51 7.03Q203.08 7.36 202.63 7.86Q202.17 8.36 201.71 8.98Q201.24 9.60 200.80 10.30L200.80 10.30Q201.98 10.21 203.48 10.18L203.48 10.18Q203.59 9.59 203.72 9.01Q203.85 8.43 204.01 7.83ZM219.74 16.21L219.74 16.21Q219.72 16.23 219.69 16.23Q219.66 16.23 219.58 16.23L219.58 16.23Q219.38 16.23 219.12 16.16Q218.86 16.10 218.62 16.01Q218.37 15.92 218.20 15.81Q218.02 15.69 217.98 15.61L217.98 15.61Q217.97 15.41 217.97 15.20Q217.97 14.99 217.97 14.80L217.97 14.80Q217.97 13.23 218.20 11.52Q218.43 9.81 218.96 7.83L218.96 7.83Q219.02 7.63 219.08 7.33Q219.14 7.03 219.21 6.68L219.21 6.68Q218.88 6.94 218.41 7.53Q217.95 8.11 217.44 8.90Q216.93 9.69 216.42 10.63Q215.91 11.58 215.49 12.55Q215.07 13.52 214.77 14.48Q214.47 15.43 214.40 16.24L214.40 16.24Q213.72 16.04 213.47 15.85Q213.21 15.65 213.21 15.37L213.21 15.37Q213.21 15.12 213.36 14.66Q213.51 14.20 213.79 13.57Q214.07 12.94 214.48 12.16Q214.89 11.38 215.38 10.49L215.38 10.49Q215.94 9.46 216.47 8.57Q217.01 7.67 217.53 6.94Q218.05 6.22 218.55 5.68Q219.04 5.15 219.53 4.87L219.53 4.87Q219.73 4.87 220.06 4.97Q220.39 5.07 220.70 5.21Q221.02 5.35 221.26 5.49Q221.51 5.64 221.54 5.74L221.54 5.74Q221.34 6.13 221.07 6.92Q220.81 7.70 220.53 8.69Q220.26 9.69 220.02 10.80Q219.77 11.91 219.63 12.94L219.63 12.94Q219.95 12.17 220.38 11.33Q220.81 10.50 221.28 9.68Q221.76 8.86 222.26 8.09Q222.75 7.32 223.23 6.69Q223.71 6.05 224.12 5.57Q224.53 5.10 224.85 4.87L224.85 4.87Q225.05 4.87 225.38 4.97Q225.71 5.07 226.02 5.21Q226.34 5.35 226.58 5.49Q226.83 5.64 226.86 5.74L226.86 5.74Q226.41 6.54 226.07 7.69Q225.74 8.83 225.50 10.09Q225.27 11.35 225.16 12.59Q225.04 13.83 225.04 14.81L225.04 14.81Q225.04 15.13 225.04 15.48Q225.04 15.83 225.06 16.21L225.06 16.21Q224.87 16.21 224.59 16.16Q224.32 16.11 224.06 16.03Q223.80 15.95 223.59 15.84Q223.38 15.74 223.30 15.61L223.30 15.61Q223.29 15.41 223.29 15.20Q223.29 14.99 223.29 14.80L223.29 14.80Q223.29 13.23 223.52 11.52Q223.75 9.81 224.28 7.83L224.28 7.83Q224.34 7.63 224.41 7.29Q224.48 6.96 224.55 6.59L224.55 6.59Q224.15 6.79 223.66 7.34Q223.16 7.90 222.65 8.69Q222.14 9.48 221.64 10.44Q221.14 11.41 220.75 12.41Q220.35 13.41 220.07 14.40Q219.80 15.39 219.74 16.21ZM243.80 7.46L243.80 7.46Q243.80 8.33 243.32 9.01Q242.84 9.69 242.02 10.14L242.02 10.14Q242.55 10.50 242.86 11.03Q243.18 11.55 243.18 12.18L243.18 12.18Q243.18 12.94 242.72 13.67Q242.27 14.41 241.51 14.97Q240.76 15.54 239.79 15.89Q238.83 16.24 237.82 16.24L237.82 16.24Q236.73 16.24 235.91 15.83Q235.09 15.41 234.63 14.66L234.63 14.66Q234.77 14.24 235.00 13.62Q235.23 12.99 235.51 12.30Q235.79 11.61 236.07 10.92Q236.36 10.23 236.61 9.69L236.61 9.69Q237.15 8.50 237.57 7.71Q237.99 6.93 238.34 6.47L238.34 6.47Q237.57 6.71 236.94 7.01Q236.31 7.31 236.01 7.59L236.01 7.59Q235.89 7.50 235.75 7.34Q235.62 7.17 235.50 6.96Q235.38 6.76 235.30 6.55Q235.23 6.34 235.21 6.17L235.21 6.17Q235.58 5.92 236.16 5.69Q236.74 5.46 237.43 5.29Q238.11 5.12 238.83 5.03Q239.55 4.93 240.21 4.93L240.21 4.93Q241.89 4.93 242.84 5.60Q243.80 6.27 243.80 7.46ZM238.46 10.81L238.46 10.81Q238.20 10.68 237.97 10.43L237.97 10.43Q237.65 11.14 237.36 11.83Q237.08 12.52 236.85 13.10Q236.63 13.69 236.49 14.13Q236.35 14.56 236.33 14.76L236.33 14.76Q236.53 14.87 236.80 14.92Q237.08 14.98 237.48 14.98L237.48 14.98Q238.43 14.98 239.30 14.71Q240.17 14.45 240.83 13.99Q241.49 13.54 241.88 12.95Q242.27 12.36 242.27 11.72L242.27 11.72Q242.27 10.79 241.47 10.39L241.47 10.39Q240.38 10.84 239.01 10.84L239.01 10.84Q238.81 10.84 238.71 10.84Q238.60 10.84 238.46 10.81ZM241.18 5.95L241.18 5.95Q240.88 5.95 240.55 5.98Q240.23 6.02 239.86 6.09L239.86 6.09Q239.92 6.15 239.95 6.21Q239.99 6.27 240.02 6.34L240.02 6.34Q239.89 6.51 239.71 6.83Q239.53 7.15 239.30 7.58Q239.08 8.01 238.83 8.53Q238.59 9.04 238.34 9.59L238.34 9.59Q238.57 9.53 238.92 9.50Q239.26 9.46 239.60 9.46L239.60 9.46Q239.78 9.46 239.95 9.48Q240.13 9.49 240.30 9.52L240.30 9.52Q240.97 9.41 241.51 9.19Q242.05 8.97 242.44 8.69Q242.83 8.40 243.04 8.05Q243.25 7.70 243.25 7.31L243.25 7.31Q243.25 6.64 242.72 6.29Q242.19 5.95 241.18 5.95ZM257.67 4.98L257.67 4.98Q257.94 5.10 258.22 5.27Q258.50 5.45 258.73 5.63Q258.97 5.81 259.13 5.98Q259.29 6.16 259.31 6.27L259.31 6.27Q259.07 6.22 258.83 6.20Q258.59 6.17 258.40 6.17L258.40 6.17Q257.77 6.17 257.14 6.48Q256.52 6.79 255.96 7.32Q255.40 7.85 254.93 8.57Q254.45 9.28 254.11 10.09Q253.76 10.91 253.57 11.77Q253.37 12.64 253.37 13.48L253.37 13.48Q253.37 14.57 253.74 15.11Q254.10 15.64 254.80 15.64L254.80 15.64Q255.14 15.64 255.53 15.51Q255.92 15.37 256.33 15.13Q256.73 14.90 257.12 14.56Q257.52 14.22 257.85 13.82L257.85 13.82Q258.34 13.23 258.73 12.48Q259.13 11.73 259.40 10.89Q259.67 10.05 259.82 9.16Q259.97 8.27 259.97 7.42L259.97 7.42Q259.97 7.08 259.95 6.85Q259.94 6.62 259.92 6.46Q259.90 6.30 259.88 6.20Q259.87 6.10 259.85 6.03L259.85 6.03Q260.02 6.12 260.22 6.24Q260.43 6.36 260.60 6.59Q260.78 6.82 260.90 7.20Q261.02 7.57 261.02 8.18L261.02 8.18Q261.02 9.16 260.78 10.10Q260.55 11.05 260.14 11.90Q259.73 12.75 259.17 13.50Q258.61 14.24 257.96 14.80L257.96 14.80Q257.12 15.54 256.17 15.95Q255.22 16.35 254.34 16.35L254.34 16.35Q253.05 16.35 252.37 15.53Q251.69 14.71 251.69 13.12L251.69 13.12Q251.69 12.26 251.88 11.31Q252.07 10.36 252.41 9.44Q252.76 8.51 253.23 7.68Q253.71 6.85 254.28 6.21Q254.84 5.57 255.49 5.19Q256.14 4.82 256.83 4.82L256.83 4.82Q257.05 4.82 257.25 4.85Q257.45 4.89 257.67 4.98ZM269.28 14.45L269.28 14.45Q269.49 13.99 269.78 13.26Q270.07 12.53 270.40 11.68Q270.72 10.84 271.05 9.95Q271.39 9.06 271.68 8.26Q271.98 7.46 272.19 6.83Q272.41 6.20 272.51 5.87L272.51 5.87Q271.63 6.23 271.00 6.97Q270.37 7.71 270.05 8.83L270.05 8.83Q269.72 8.72 269.46 8.43Q269.19 8.15 269.11 7.71L269.11 7.71Q269.25 7.07 269.63 6.54Q270.02 6.01 270.61 5.63Q271.19 5.25 271.96 5.05Q272.73 4.84 273.62 4.84L273.62 4.84Q274.74 4.84 275.67 5.17Q276.61 5.50 277.28 6.09Q277.96 6.68 278.33 7.50Q278.71 8.33 278.71 9.34L278.71 9.34Q278.71 10.71 278.21 11.96Q277.70 13.20 276.84 14.15Q275.98 15.11 274.85 15.67Q273.71 16.24 272.47 16.24L272.47 16.24Q271.32 16.24 270.50 15.79Q269.68 15.33 269.28 14.45ZM274.22 5.54L274.22 5.54Q273.52 5.54 272.89 5.74L272.89 5.74Q273.50 5.96 273.91 6.21Q274.32 6.45 274.47 6.59L274.47 6.59Q274.36 6.75 274.14 7.14Q273.92 7.53 273.64 8.09Q273.35 8.65 273.03 9.32Q272.71 9.98 272.40 10.68L272.40 10.68Q271.60 12.46 271.24 13.48Q270.89 14.50 270.89 14.90L270.89 14.90Q271.08 14.97 271.36 14.99Q271.64 15.02 271.96 15.02L271.96 15.02Q273.10 15.02 274.11 14.50Q275.13 13.97 275.89 13.09Q276.65 12.21 277.09 11.04Q277.54 9.87 277.54 8.58L277.54 8.58Q277.54 7.14 276.64 6.34Q275.74 5.54 274.22 5.54ZM286.65 14.38L286.65 14.38Q286.65 13.87 286.81 13.07Q286.97 12.26 287.23 11.33Q287.49 10.40 287.83 9.43Q288.16 8.46 288.51 7.60Q288.86 6.75 289.20 6.10Q289.53 5.46 289.80 5.18L289.80 5.18Q289.94 5.19 290.17 5.29Q290.40 5.38 290.64 5.50Q290.88 5.63 291.07 5.78Q291.27 5.92 291.33 6.05L291.33 6.05Q290.92 6.41 290.52 7.15Q290.12 7.88 289.75 8.82Q289.38 9.76 289.06 10.80Q288.74 11.84 288.50 12.82Q288.26 13.80 288.13 14.64Q287.99 15.48 287.99 16.00L287.99 16.00Q287.99 16.24 288.04 16.30L288.04 16.30Q287.73 16.28 287.59 16.19Q287.45 16.10 287.37 16.00Q287.29 15.89 287.23 15.79Q287.17 15.68 287.04 15.62L287.04 15.62Q286.94 15.58 286.87 15.43Q286.80 15.27 286.75 15.09Q286.71 14.90 286.68 14.70Q286.65 14.50 286.65 14.38ZM298.27 16.24L298.27 16.24Q297.60 16.04 297.34 15.85Q297.08 15.65 297.08 15.36L297.08 15.36Q297.08 15.13 297.21 14.73Q297.33 14.32 297.58 13.77Q297.82 13.22 298.17 12.54Q298.51 11.87 298.94 11.10L298.94 11.10Q298.58 11.09 298.29 11.08Q298.00 11.07 297.82 11.07L297.82 11.07Q297.91 10.86 298.30 10.71Q298.69 10.56 299.33 10.44L299.33 10.44Q299.88 9.53 300.50 8.71Q301.13 7.88 301.76 7.19Q302.39 6.50 303.02 5.97Q303.65 5.45 304.22 5.14L304.22 5.14Q304.23 5.04 304.24 4.97Q304.25 4.90 304.25 4.87L304.25 4.87Q304.44 4.87 304.77 4.97Q305.10 5.07 305.42 5.21Q305.73 5.35 305.98 5.49Q306.22 5.64 306.25 5.74L306.25 5.74Q305.79 6.55 305.34 8.17Q304.89 9.79 304.60 12.04L304.60 12.04Q304.53 12.60 304.48 13.31Q304.43 14.03 304.43 14.91L304.43 14.91Q304.43 15.22 304.43 15.54Q304.43 15.86 304.46 16.21L304.46 16.21Q304.43 16.23 304.40 16.23Q304.37 16.23 304.29 16.23L304.29 16.23Q304.09 16.23 303.83 16.16Q303.58 16.10 303.33 16.01Q303.09 15.92 302.91 15.81Q302.74 15.69 302.69 15.61L302.69 15.61Q302.68 15.43 302.68 15.25Q302.68 15.08 302.68 14.88L302.68 14.88Q302.68 14.01 302.74 13.12Q302.81 12.22 302.96 11.27L302.96 11.27Q302.76 11.26 302.44 11.23Q302.12 11.21 301.72 11.20Q301.32 11.19 300.87 11.16Q300.41 11.14 299.98 11.13L299.98 11.13Q299.64 11.76 299.35 12.38Q299.05 13.01 298.84 13.64L298.84 13.64Q298.61 14.31 298.46 14.98Q298.31 15.65 298.27 16.24ZM303.67 7.83L303.67 7.83Q303.73 7.63 303.81 7.29Q303.88 6.94 303.95 6.57L303.95 6.57Q303.60 6.69 303.18 7.03Q302.75 7.36 302.30 7.86Q301.84 8.36 301.37 8.98Q300.90 9.60 300.47 10.30L300.47 10.30Q301.64 10.21 303.14 10.18L303.14 10.18Q303.25 9.59 303.39 9.01Q303.52 8.43 303.67 7.83Z"></path></g></svg>